0
SECTION
2
HEADER
9
$INSUNITS
70
4
9
$ACADVER
1
AC1014
9
$HANDSEED
5
FFFF
0
ENDSEC
0
SECTION
2
TABLES
0
TABLE
2
VPORT
5
8
100
AcDbSymbolTable
0
ENDTAB
0
TABLE
2
LTYPE
5
5
100
AcDbSymbolTable
0
LTYPE
5
14
100
AcDbSymbolTableRecord
100
AcDbLinetypeTableRecord
2
BYBLOCK
70
0
0
LTYPE
5
15
100
AcDbSymbolTableRecord
100
AcDbLinetypeTableRecord
2
BYLAYER
70
0
0
LTYPE
5
16
100
AcDbSymbolTableRecord
100
AcDbLinetypeTableRecord
2
DASHED
70
0
3
Dashed __ __ __ __ __ __ __ __ __ __ __ __ __ _
72
65
73
2
40
0.75
49
0.5
74
0
49
-0.25
74
0
0
ENDTAB
0
TABLE
2
LAYER
5
2
100
AcDbSymbolTable
70
2
0
LAYER
5
50
100
AcDbSymbolTableRecord
100
AcDbLayerTableRecord
2
0
70
0
62
7
6
CONTINUOUS
0
ENDTAB
0
TABLE
2
STYLE
5
3
100
AcDbSymbolTable
70
1
0
STYLE
5
11
100
AcDbSymbolTableRecord
100
AcDbTextStyleTableRecord
2
STANDARD
70
0
0
ENDTAB
0
TABLE
2
VIEW
5
6
100
AcDbSymbolTable
70
0
0
ENDTAB
0
TABLE
2
UCS
5
7
100
AcDbSymbolTable
70
0
0
ENDTAB
0
TABLE
2
APPID
5
9
100
AcDbSymbolTable
70
2
0
APPID
5
12
100
AcDbSymbolTableRecord
100
AcDbRegAppTableRecord
2
ACAD
70
0
0
ENDTAB
0
TABLE
2
DIMSTYLE
5
A
100
AcDbSymbolTable
70
1
0
ENDTAB
0
TABLE
2
BLOCK_RECORD
5
1
100
AcDbSymbolTable
70
1
0
BLOCK_RECORD
5
1F
100
AcDbSymbolTableRecord
100
AcDbBlockTableRecord
2
*MODEL_SPACE
0
BLOCK_RECORD
5
1B
100
AcDbSymbolTableRecord
100
AcDbBlockTableRecord
2
*PAPER_SPACE
0
ENDTAB
0
ENDSEC
0
SECTION
2
BLOCKS
0
BLOCK
5
20
100
AcDbEntity
100
AcDbBlockBegin
2
*MODEL_SPACE
0
ENDBLK
5
21
100
AcDbEntity
100
AcDbBlockEnd
0
BLOCK
5
1C
100
AcDbEntity
100
AcDbBlockBegin
2
*PAPER_SPACE
0
ENDBLK
5
1D
100
AcDbEntity
100
AcDbBlockEnd
0
ENDSEC
0
SECTION
2
ENTITIES
0
SPLINE
5
100
100
AcDbEntity
8
0
100
AcDbSpline
70
0
71
3
72
8
73
4
74
0
42
0.000000001
43
0.0000000001
44
0.0000000001
40
-0.69354918632118268
40
-0.69354918632118268
40
-0.69354918632118268
40
-0.69354918632118268
40
-0.06221526009814668
40
-0.06221526009814668
40
-0.06221526009814668
40
-0.06221526009814668
10
-54.861572288671503
20
-25.330428402790304
30
-4.4408920985006262e-15
10
-55.832692560384764
20
-23.496207412315822
30
-4.4408920985006262e-15
10
-56.883299590503718
20
-21.704676500688336
30
0
10
-58.009489262890739
20
-19.961165900111638
30
0
0
LINE
5
101
100
AcDbEntity
8
0
100
AcDbLine
10
-54.861572288671503
20
-25.330428402790304
30
-4.4408920985006262e-15
11
-54.472869491936009
21
-26.778569204194085
31
-4.4408920985006262e-15
0
LINE
5
102
100
AcDbEntity
8
0
100
AcDbLine
10
-49.643803240458709
20
-30.482375107686185
30
-4.9960036108132044e-15
11
-16.487404114353001
21
-30.482375109760444
31
1.2924697071141057e-25
0
LINE
5
103
100
AcDbEntity
8
0
100
AcDbLine
10
-11.573506854983449
20
-26.406287295757856
30
0
11
-9.846920406204891
21
-17.22330595538341
31
-5.5511151231257827e-16
0
ARC
5
104
100
AcDbEntity
8
0
100
AcDbCircle
10
-23.457697945404504
20
-92.459911742889773
30
-1.7763568394002505e-14
40
86.105027516818907
210
7.1713446559366823e-18
220
-5.674684797647641e-17
230
1
100
AcDbArc
50
83.252275398729125
51
111.97661531061304
0
ARC
5
105
100
AcDbEntity
8
0
100
AcDbCircle
10
-16.487404114040199
20
-25.482375109760447
30
-5.854827030937197e-31
40
4.9999999999999956
210
-7.4062305716605369e-17
220
-5.9683961678904825e-17
230
1
100
AcDbArc
50
269.99999999641551
51
349.35155171953647
0
ARC
5
106
100
AcDbEntity
8
0
100
AcDbCircle
10
-49.643803240145928
20
-25.482375107686206
30
-4.4408920985006325e-15
40
4.9999999999999751
210
-1.4062328373391738e-16
220
4.1288006328668015e-16
230
1
100
AcDbArc
50
195.02490117828697
51
269.9999999964158
0
SPLINE
5
107
100
AcDbEntity
8
0
100
AcDbSpline
70
0
71
3
72
11
73
7
74
0
42
0.000000001
43
0.0000000001
44
0.0000000001
40
-0.44407002390602052
40
-0.44407002390602052
40
-0.44407002390602052
40
-0.44407002390602052
40
0
40
0
40
0
40
0.00049851303597944253
40
0.00049851303597944253
40
0.00049851303597944253
40
0.00049851303597944253
10
-9.0177304177405677
20
-12.859572352510174
30
0
10
-9.2966253389806628
20
-14.311984403769033
30
0
10
-9.5727169394216958
20
-15.764933895474009
30
0
10
-9.8460000539000543
20
-17.21841093315588
30
0
10
-9.8463068415410646
20
-17.220042606567183
30
4.4408920985006262e-15
10
-9.8466136256426786
20
-17.221674280643025
30
0
10
-9.8469204062048661
20
-17.223305955383267
30
0
0
SPLINE
5
108
100
AcDbEntity
8
0
100
AcDbSpline
70
0
71
3
72
16
73
12
74
0
42
0.000000001
43
0.0000000001
44
0.0000000001
40
0
40
0
40
0
40
0
40
0.19532223669346382
40
0.19532223669346382
40
0.39064447338692737
40
0.39064447338692737
40
0.58596671008039147
40
0.58596671008039147
40
0.7047266203954865
40
0.7047266203954865
40
0.82348653071058164
40
0.82348653071058164
40
0.82348653071058164
40
0.82348653071058164
10
-13.340532914713938
20
-6.9513230782771895
30
0
10
-12.693968702141831
20
-7.0278229590925232
30
0
10
-12.068528123674271
20
-7.2298798275171485
30
0
10
-10.930302584414646
20
-7.8623611891019198
30
0
10
-10.428399680158751
20
-8.2867388157163528
30
0
10
-9.6155148213717254
20
-9.3039940724389698
30
0
10
-9.3123044891470759
20
-9.8871461878459339
30
0
10
-9.0181791653706007
20
-10.891922124846099
30
0
10
-8.9524774077268123
20
-11.283712310587941
30
0
10
-8.9148610653858338
20
-12.07455093834119
30
0
10
-8.9430792322477348
20
-12.470808437525831
30
0
10
-9.0177304177405677
20
-12.859572352510174
30
0
0
SPLINE
5
109
100
AcDbEntity
8
0
100
AcDbSpline
70
0
71
3
72
16
73
12
74
0
42
0.000000001
43
0.0000000001
44
0.0000000001
40
0
40
0
40
0
40
0
40
0.19532223669346407
40
0.19532223669346407
40
0.39064447338692798
40
0.39064447338692798
40
0.58596671008039192
40
0.58596671008039192
40
0.73435882837918309
40
0.73435882837918309
40
0.88275094667797382
40
0.88275094667797382
40
0.88275094667797382
40
0.88275094667797382
10
-58.009489262890739
20
-19.961165900111652
30
0
10
-58.362751694505405
20
-19.414262648015409
30
0
10
-58.605814378276555
20
-18.803588080811757
30
0
10
-58.844177710874924
20
-17.52344239666186
30
0
10
-58.837199476324443
20
-16.86621017018939
30
0
10
-58.571708773320346
20
-15.5914142109891
30
0
10
-58.315734540691075
20
-14.986038222448707
30
0
10
-57.673793757138242
20
-14.037052561833569
30
0
10
-57.337378663426534
20
-13.67073090521526
30
0
10
-56.568021459695778
20
-13.048825790365273
30
0
10
-56.139320548610627
20
-12.796670678937005
30
0
10
-55.680622372877799
20
-12.611562323421579
30
0
0
ENDSEC
0
SECTION
2
OBJECTS
0
DICTIONARY
5
C
100
AcDbDictionary
3
ACAD_GROUP
350
D
3
ACAD_MLINESTYLE
350
17
0
DICTIONARY
5
D
100
AcDbDictionary
0
DICTIONARY
5
1A
330
C
100
AcDbDictionary
0
DICTIONARY
5
17
100
AcDbDictionary
0
ENDSEC
0
EOF
