0
SECTION
2
HEADER
9
$INSUNITS
70
4
9
$ACADVER
1
AC1014
9
$HANDSEED
5
FFFF
0
ENDSEC
0
SECTION
2
TABLES
0
TABLE
2
VPORT
5
8
100
AcDbSymbolTable
0
ENDTAB
0
TABLE
2
LTYPE
5
5
100
AcDbSymbolTable
0
LTYPE
5
14
100
AcDbSymbolTableRecord
100
AcDbLinetypeTableRecord
2
BYBLOCK
70
0
0
LTYPE
5
15
100
AcDbSymbolTableRecord
100
AcDbLinetypeTableRecord
2
BYLAYER
70
0
0
LTYPE
5
16
100
AcDbSymbolTableRecord
100
AcDbLinetypeTableRecord
2
DASHED
70
0
3
Dashed __ __ __ __ __ __ __ __ __ __ __ __ __ _
72
65
73
2
40
0.75
49
0.5
74
0
49
-0.25
74
0
0
ENDTAB
0
TABLE
2
LAYER
5
2
100
AcDbSymbolTable
70
2
0
LAYER
5
50
100
AcDbSymbolTableRecord
100
AcDbLayerTableRecord
2
0
70
0
62
7
6
CONTINUOUS
0
ENDTAB
0
TABLE
2
STYLE
5
3
100
AcDbSymbolTable
70
1
0
STYLE
5
11
100
AcDbSymbolTableRecord
100
AcDbTextStyleTableRecord
2
STANDARD
70
0
0
ENDTAB
0
TABLE
2
VIEW
5
6
100
AcDbSymbolTable
70
0
0
ENDTAB
0
TABLE
2
UCS
5
7
100
AcDbSymbolTable
70
0
0
ENDTAB
0
TABLE
2
APPID
5
9
100
AcDbSymbolTable
70
2
0
APPID
5
12
100
AcDbSymbolTableRecord
100
AcDbRegAppTableRecord
2
ACAD
70
0
0
ENDTAB
0
TABLE
2
DIMSTYLE
5
A
100
AcDbSymbolTable
70
1
0
ENDTAB
0
TABLE
2
BLOCK_RECORD
5
1
100
AcDbSymbolTable
70
1
0
BLOCK_RECORD
5
1F
100
AcDbSymbolTableRecord
100
AcDbBlockTableRecord
2
*MODEL_SPACE
0
BLOCK_RECORD
5
1B
100
AcDbSymbolTableRecord
100
AcDbBlockTableRecord
2
*PAPER_SPACE
0
ENDTAB
0
ENDSEC
0
SECTION
2
BLOCKS
0
BLOCK
5
20
100
AcDbEntity
100
AcDbBlockBegin
2
*MODEL_SPACE
0
ENDBLK
5
21
100
AcDbEntity
100
AcDbBlockEnd
0
BLOCK
5
1C
100
AcDbEntity
100
AcDbBlockBegin
2
*PAPER_SPACE
0
ENDBLK
5
1D
100
AcDbEntity
100
AcDbBlockEnd
0
ENDSEC
0
SECTION
2
ENTITIES
0
LWPOLYLINE
5
100
100
AcDbEntity
8
OUTER_PROFILES
100
AcDbPolyline
90
28
70
1
43
0.0
10
71.380974398373638
20
1.0000000000000009
10
71.380974398373638
20
7.0000001043081284
10
67.500001043081284
20
7.0000001043081284
10
67.500001043081284
20
7.5000001043081284
10
69.250001050531864
20
7.5000001043081284
10
69.250001050531864
20
24.50000037252903
10
67.500001043081284
20
24.50000037252903
10
67.500001043081284
20
25.00000037252903
10
71.380974398373638
20
25.00000037252903
10
71.380974398373638
20
31.000000476837151
10
67.500001043081284
20
31.000000476837151
10
67.500001043081284
20
32.000000476837158
10
0
20
32.000000476837158
10
0
20
31.000000476837151
10
-3.8809733552923298
20
31.000000476837151
10
-3.8809733552923298
20
25.00000037252903
10
0
20
25.00000037252903
10
0
20
24.50000037252903
10
-1.7500000074505762
20
24.50000037252903
10
-1.7500000074505762
20
7.5000001043081284
10
0
20
7.5000001043081284
10
0
20
7.0000001043081284
10
-3.8809733552923298
20
7.0000001043081284
10
-3.8809733552923298
20
1.0000000000000009
10
0
20
1.0000000000000009
10
0
20
0
10
67.500001043081284
20
0
10
67.500001043081284
20
1.0000000000000009
0
CIRCLE
5
101
100
AcDbEntity
8
INTERIOR_PROFILES
100
AcDbCircle
10
-4.7500000894069716
20
27.500000409781933
30
0
40
1.3999999999999968
210
0
220
0
230
-1
0
CIRCLE
5
102
100
AcDbEntity
8
INTERIOR_PROFILES
100
AcDbCircle
10
-4.7500000894069716
20
4.5000000670552254
30
0
40
1.3999999999999968
210
0
220
0
230
-1
0
CIRCLE
5
103
100
AcDbEntity
8
INTERIOR_PROFILES
100
AcDbCircle
10
-62.750000953674316
20
27.500000409781933
30
0
40
1.3999999999999968
210
0
220
0
230
-1
0
CIRCLE
5
104
100
AcDbEntity
8
INTERIOR_PROFILES
100
AcDbCircle
10
-62.750000953674316
20
4.5000000670552254
30
0
40
1.3999999999999968
210
0
220
0
230
-1
0
LINE
5
105
100
AcDbEntity
8
BEND
100
AcDbLine
10
68.315487720727447
20
1.0000000000000009
30
-1.8041124150158794e-15
11
68.315487720727447
21
7.0000001043081284
31
8.3266726846886741e-16
0
LINE
5
106
100
AcDbEntity
8
BEND
100
AcDbLine
10
-0.81548667764616212
20
7.0000001043081284
30
-1.8041124150158794e-15
11
-0.81548667764616212
21
1.0000000000000009
31
8.3266726846886741e-16
0
LINE
5
107
100
AcDbEntity
8
BEND
100
AcDbLine
10
68.315487720727447
20
25.00000037252903
30
-1.8041124150158794e-15
11
68.315487720727447
21
31.000000476837151
31
8.3266726846886741e-16
0
LINE
5
108
100
AcDbEntity
8
BEND
100
AcDbLine
10
-0.81548667764616212
20
31.000000476837151
30
-1.8041124150158794e-15
11
-0.81548667764616212
21
25.00000037252903
31
8.3266726846886741e-16
0
LINE
5
109
100
AcDbEntity
8
BEND_EXTENT
100
AcDbLine
10
-1.3809733552923253
20
1.0000000000000009
30
-4.4408920985006262e-15
11
-1.3809733552923253
21
7.0000001043081284
31
-8.8817841970012523e-15
0
LINE
5
110
100
AcDbEntity
8
BEND_EXTENT
100
AcDbLine
10
-0.24999999999999911
20
7.0000001043081284
30
0
11
-0.24999999999999911
21
1.0000000000000009
31
0
0
LINE
5
111
100
AcDbEntity
8
BEND_EXTENT
100
AcDbLine
10
68.88097439837361
20
31.000000476837151
30
-4.4408920985006262e-15
11
68.88097439837361
21
25.00000037252903
31
-8.8817841970012523e-15
0
LINE
5
112
100
AcDbEntity
8
BEND_EXTENT
100
AcDbLine
10
67.750001043081284
20
25.00000037252903
30
0
11
67.750001043081284
21
31.000000476837151
31
0
0
LINE
5
113
100
AcDbEntity
8
BEND_EXTENT
100
AcDbLine
10
68.88097439837361
20
7.0000001043081284
30
-4.4408920985006262e-15
11
68.88097439837361
21
1.0000000000000009
31
-8.8817841970012523e-15
0
LINE
5
114
100
AcDbEntity
8
BEND_EXTENT
100
AcDbLine
10
67.750001043081284
20
1.0000000000000009
30
0
11
67.750001043081284
21
7.0000001043081284
31
0
0
LINE
5
115
100
AcDbEntity
8
BEND_EXTENT
100
AcDbLine
10
-1.3809733552923253
20
25.00000037252903
30
-4.4408920985006262e-15
11
-1.3809733552923253
21
31.000000476837151
31
-8.8817841970012523e-15
0
LINE
5
116
100
AcDbEntity
8
BEND_EXTENT
100
AcDbLine
10
-0.24999999999999911
20
31.000000476837151
30
0
11
-0.24999999999999911
21
25.00000037252903
31
0
0
ENDSEC
0
SECTION
2
OBJECTS
0
DICTIONARY
5
C
100
AcDbDictionary
3
ACAD_GROUP
350
D
3
ACAD_MLINESTYLE
350
17
0
DICTIONARY
5
D
100
AcDbDictionary
0
DICTIONARY
5
1A
330
C
100
AcDbDictionary
0
DICTIONARY
5
17
100
AcDbDictionary
0
ENDSEC
0
EOF
