0
SECTION
2
HEADER
9
$INSUNITS
70
4
9
$ACADVER
1
AC1014
9
$HANDSEED
5
FFFF
0
ENDSEC
0
SECTION
2
TABLES
0
TABLE
2
VPORT
5
8
100
AcDbSymbolTable
0
ENDTAB
0
TABLE
2
LTYPE
5
5
100
AcDbSymbolTable
0
LTYPE
5
14
100
AcDbSymbolTableRecord
100
AcDbLinetypeTableRecord
2
BYBLOCK
70
0
0
LTYPE
5
15
100
AcDbSymbolTableRecord
100
AcDbLinetypeTableRecord
2
BYLAYER
70
0
0
LTYPE
5
16
100
AcDbSymbolTableRecord
100
AcDbLinetypeTableRecord
2
DASHED
70
0
3
Dashed __ __ __ __ __ __ __ __ __ __ __ __ __ _
72
65
73
2
40
0.75
49
0.5
74
0
49
-0.25
74
0
0
ENDTAB
0
TABLE
2
LAYER
5
2
100
AcDbSymbolTable
70
2
0
LAYER
5
50
100
AcDbSymbolTableRecord
100
AcDbLayerTableRecord
2
0
70
0
62
7
6
CONTINUOUS
0
ENDTAB
0
TABLE
2
STYLE
5
3
100
AcDbSymbolTable
70
1
0
STYLE
5
11
100
AcDbSymbolTableRecord
100
AcDbTextStyleTableRecord
2
STANDARD
70
0
0
ENDTAB
0
TABLE
2
VIEW
5
6
100
AcDbSymbolTable
70
0
0
ENDTAB
0
TABLE
2
UCS
5
7
100
AcDbSymbolTable
70
0
0
ENDTAB
0
TABLE
2
APPID
5
9
100
AcDbSymbolTable
70
2
0
APPID
5
12
100
AcDbSymbolTableRecord
100
AcDbRegAppTableRecord
2
ACAD
70
0
0
ENDTAB
0
TABLE
2
DIMSTYLE
5
A
100
AcDbSymbolTable
70
1
0
ENDTAB
0
TABLE
2
BLOCK_RECORD
5
1
100
AcDbSymbolTable
70
1
0
BLOCK_RECORD
5
1F
100
AcDbSymbolTableRecord
100
AcDbBlockTableRecord
2
*MODEL_SPACE
0
BLOCK_RECORD
5
1B
100
AcDbSymbolTableRecord
100
AcDbBlockTableRecord
2
*PAPER_SPACE
0
ENDTAB
0
ENDSEC
0
SECTION
2
BLOCKS
0
BLOCK
5
20
100
AcDbEntity
100
AcDbBlockBegin
2
*MODEL_SPACE
0
ENDBLK
5
21
100
AcDbEntity
100
AcDbBlockEnd
0
BLOCK
5
1C
100
AcDbEntity
100
AcDbBlockBegin
2
*PAPER_SPACE
0
ENDBLK
5
1D
100
AcDbEntity
100
AcDbBlockEnd
0
ENDSEC
0
SECTION
2
ENTITIES
0
LWPOLYLINE
5
100
100
AcDbEntity
8
0
100
AcDbPolyline
90
4
70
1
43
0.0
10
21
20
-8.4710678118654794
10
22
20
-8.4710678118654776
10
22
20
4.9639608568231726
10
21
20
4.9639608568231726
0
SPLINE
5
101
100
AcDbEntity
8
0
100
AcDbSpline
70
0
71
3
72
26
73
22
74
0
42
0.000000001
43
0.0000000001
44
0.0000000001
40
-4.8336662623029181
40
-4.8336662623029181
40
-4.8336662623029181
40
-4.8336662623029181
40
-3.9097860414036778
40
-3.9097860414036778
40
-3.1988549993480921
40
-3.1988549993480921
40
-2.7945272143080384
40
-2.7945272143080384
40
-2.6004046351016998
40
-2.6004046351016998
40
-2.4443373634624348
40
-2.4443373634624348
40
-2.2923337995464705
40
-2.2923337995464705
40
-2.1215190833294946
40
-2.1215190833294946
40
-1.8556592911113317
40
-1.8556592911113317
40
-0.9362392903108987
40
-0.9362392903108987
40
-0
40
-0
40
-0
40
-0
10
-22.930231992473757
20
5.3457983511301945
30
-1.6653345369377348e-15
10
-20.42959281706537
20
7.1258275837535914
30
-1.6653345369377348e-15
10
-17.762812471094126
20
8.3233912623823052
30
1.6482593068189999e-10
10
-12.516937593522597
20
9.7025196616149625
30
1.648264857934123e-10
10
-10.158129080317348
20
10.027230881820453
30
-2.7755575615628914e-15
10
-6.4826012713860308
20
10.304367887981563
30
-2.2204460492503131e-15
10
-5.153549726869544
20
10.357347030688942
30
-9.6881946909377348e-11
10
-3.1673358756377361
20
10.398949975273208
30
-9.6881391797865035e-11
10
-2.5185841303162313
20
10.406702543054271
30
-5.2180482157382357e-14
10
-1.3625588216364573
20
10.414917281819198
30
-5.2735593669694936e-14
10
-0.82623395762873031
20
10.416661259306821
30
-2.3759327838490663e-11
10
0.17622071825363184
20
10.417649815301369
30
-2.3759327838490663e-11
10
0.70170464216968731
20
10.417015378572883
30
-2.7755575615628914e-15
10
1.7614580287166488
20
10.412716937403221
30
-3.3306690738754696e-15
10
2.3388184770584814
20
10.408505058274553
30
-1.6653345369377348e-15
10
3.7870392394525498
20
10.389049405999664
30
-1.1102230246251565e-15
10
4.6658871853012718
20
10.368765359925865
30
7.6346373667490752e-10
10
8.5944029047262855
20
10.210075098198585
30
7.6346373667490752e-10
10
11.694071149963541
20
9.9029039690783716
30
0
10
17.675543767379285
20
8.3618241535087563
30
0
10
20.387784486694152
20
7.1555879949955674
30
5.5511151231257827e-16
10
22.930231992473757
20
5.3457983511301954
30
0
0
LINE
5
102
100
AcDbEntity
8
0
100
AcDbLine
10
-22
20
-8.4710678118654776
30
0
11
-22
21
4.9639608568231726
31
0
0
LINE
5
103
100
AcDbEntity
8
0
100
AcDbLine
10
22
20
-8.4710678118654776
30
0
11
22
21
4.9639608568231726
31
0
0
LINE
5
104
100
AcDbEntity
8
0
100
AcDbLine
10
-22
20
4.9639608568231726
30
0
11
-22.000000000000007
21
5.9763436868165165
31
0
0
LINE
5
105
100
AcDbEntity
8
0
100
AcDbLine
10
22
20
4.9639608568231726
30
0
11
22
21
5.9763444620281359
31
0
0
SPLINE
5
106
100
AcDbEntity
8
0
100
AcDbSpline
70
0
71
3
72
26
73
22
74
0
42
0.000000001
43
0.0000000001
44
0.0000000001
40
-4.7200639811102745
40
-4.7200639811102745
40
-4.7200639811102745
40
-4.7200639811102745
40
-3.9097860414036778
40
-3.9097860414036778
40
-3.1988549993480921
40
-3.1988549993480921
40
-2.7945272143080384
40
-2.7945272143080384
40
-2.6004046351016998
40
-2.6004046351016998
40
-2.4443373634624348
40
-2.4443373634624348
40
-2.2923337995464705
40
-2.2923337995464705
40
-2.1215190833294946
40
-2.1215190833294946
40
-1.8556592911113317
40
-1.8556592911113317
40
-0.9362392903108987
40
-0.9362392903108987
40
-0.11323987102098831
40
-0.11323987102098831
40
-0.11323987102098831
40
-0.11323987102098831
10
-21.999999408124186
20
-8.4710363894375558
30
6.8618815749510582e-12
10
-19.769263899646994
20
-9.9087389627748177
30
3.8041303014721354e-11
10
-17.398279043629124
20
-10.913950384265831
30
1.6482596925634315e-10
10
-12.516937593522597
20
-12.197243786663922
30
1.648264857934123e-10
10
-10.158129080317346
20
-12.521955006869414
30
-2.7755575615628914e-15
10
-6.482601271386029
20
-12.799092013030522
30
-2.2204460492503131e-15
10
-5.1535497268695432
20
-12.852071155737901
30
-9.6881946909377348e-11
10
-3.1673358756377352
20
-12.893674100322167
30
-9.6881391797865035e-11
10
-2.5185841303162304
20
-12.90142666810323
30
-5.2180482157382357e-14
10
-1.3625588216364561
20
-12.909641406868158
30
-5.2735593669694936e-14
10
-0.8262339576287292
20
-12.91138538435578
30
-2.3759327838490663e-11
10
0.17622071825363297
20
-12.912373940350328
30
-2.3759327838490663e-11
10
0.70170464216968842
20
-12.911739503621842
30
-2.7755575615628914e-15
10
1.7614580287166497
20
-12.907441062452181
30
-3.3306690738754696e-15
10
2.3388184770584828
20
-12.903229183323512
30
-1.6653345369377348e-15
10
3.7870392394525512
20
-12.883773531048623
30
-1.1102230246251565e-15
10
4.6658871853012727
20
-12.863489484974824
30
7.6346373667490752e-10
10
8.5944029047262873
20
-12.704799223247544
30
7.6346373667490752e-10
10
11.694071149963541
20
-12.397628094127329
30
0
10
17.310530000597733
20
-10.950591231584744
30
0
10
19.727212667312848
20
-9.935833320509154
30
4.2894890750429653e-16
10
21.999998629592127
20
-8.4710352625048877
30
1.5564648737690865e-16
0
ENDSEC
0
SECTION
2
OBJECTS
0
DICTIONARY
5
C
100
AcDbDictionary
3
ACAD_GROUP
350
D
3
ACAD_MLINESTYLE
350
17
0
DICTIONARY
5
D
100
AcDbDictionary
0
DICTIONARY
5
1A
330
C
100
AcDbDictionary
0
DICTIONARY
5
17
100
AcDbDictionary
0
ENDSEC
0
EOF
